<svg width="273" height="182" viewBox="0 0 273 182" fill="none" xmlns="http://www.w3.org/2000/svg">
<path d="M121.143 4.56451C136.368 3.09911 152.05 5.67692 166.156 12.4561H166.157C180.756 19.4742 193.598 30.9256 202.309 46.8399C204.857 46.5524 207.419 46.4083 209.985 46.4395H209.985C225.01 46.5513 239.645 51.9484 251.129 64.3301C253.534 66.9148 255.781 69.8123 257.876 73.0098L257.884 73.0215C265.08 84.0853 268.648 98.6166 268.495 112.671V112.672C268.342 126.454 264.639 140.474 256.72 150.986L256.718 150.988C251.605 157.768 245.083 163.258 237.362 167.572L237.363 167.573C229.95 171.721 221.399 174.823 211.938 177.017L211.721 177.066L211.501 177.094L209.793 177.302L209.541 177.333H56.8605L56.6808 177.316L55.7228 177.233L55.6398 177.227L55.5568 177.216C49.6651 176.466 44.2609 175.067 39.3038 173.017L39.3019 173.016C34.2019 170.904 29.6468 168.167 25.6193 164.8V164.799C21.85 161.657 18.5542 158.092 15.754 154.218C8.50947 144.24 4.5117 132.144 4.18763 120.017L4.1681 118.843C4.07854 106.17 8.02312 93.4581 16.6329 83.126C19.4207 79.7723 22.696 76.7031 26.4288 74.004L27.2511 73.419C31.3933 70.5258 36.0463 68.0969 41.2013 66.0967C44.2466 64.9107 47.4472 63.8902 50.7765 63.0264C55.8284 45.0828 65.807 31.0842 78.5314 21.2296L79.7013 20.3399C91.8723 11.2692 106.322 5.98409 121.143 4.56354V4.56451ZM155.922 33.7364C145.802 28.8916 134.443 27.0119 123.36 28.087L123.355 28.088C112.358 29.1427 101.723 33.1435 92.9718 39.9395L92.9669 39.9424C82.8944 47.7424 75.1574 59.4636 72.1554 75.2188L72.1544 75.2217L71.1544 80.4512L70.6154 83.2735L67.7843 83.7715L62.5763 84.6885H62.5743C57.687 85.5463 53.3992 86.7101 49.7042 88.1534L49.6915 88.1583C46.1162 89.5423 42.9797 91.2318 40.2775 93.1885C38.138 94.7379 36.3097 96.4595 34.7638 98.3145L34.7618 98.3174C30.1415 103.851 27.8597 110.815 27.7726 118.04L27.7716 118.74L27.7833 119.453C27.9839 126.814 30.4448 134.225 34.8693 140.34L35.1935 140.778C36.8262 142.956 38.6721 144.94 40.7404 146.665C42.8314 148.396 45.1531 149.847 47.7433 150.966L48.2658 151.185L48.2745 151.189C51.0334 152.325 54.1202 153.163 57.5919 153.666H207.928C214.807 151.975 220.776 149.739 225.777 146.945C230.842 144.115 234.841 140.747 237.785 136.815L237.789 136.811C242.304 130.797 244.731 121.944 244.829 112.458V112.451C244.947 102.51 242.497 92.7654 238.026 85.9005L238.021 85.8926L238.015 85.8848C236.718 83.8736 235.288 82.066 233.778 80.4434L233.776 80.4395C227.113 73.2607 218.708 70.1205 209.824 70.0645H209.815C203.381 70.0082 196.563 71.5604 190.004 74.4581C188.566 75.1697 187.094 75.9629 185.626 76.8038L184.792 77.2999C180.621 79.8179 176.441 82.8664 172.109 86.3975L168.987 88.9415L166.339 85.9092L156.256 74.3682L153.596 71.3233L156.559 68.5723C160.212 65.1813 164.169 62.0994 168.363 59.3682C171.688 57.1951 175.171 55.2556 178.769 53.5928C172.755 44.592 164.798 38.0046 155.922 33.7374V33.7364Z" fill="#32B0FF" stroke="#32B0FF" stroke-width="8.33314"/>
</svg>
